<svg width="18" height="18" viewBox="0 0 18 18" fill="none" xmlns="http://www.w3.org/2000/svg">
<g id="Frame" clip-path="url(#clip0_571_24150)">
<path id="Vector" d="M13.6708 17.6138C13.4551 17.6138 13.2393 17.5599 13.0055 17.434L9.37303 15.5279C9.28312 15.4739 9.15724 15.438 9.0134 15.438C8.88752 15.438 8.74366 15.4739 8.65375 15.5099L5.03928 17.434C4.82349 17.5599 4.6077 17.6138 4.35595 17.6138C3.92437 17.6138 3.51077 17.416 3.22303 17.0924C2.93532 16.7687 2.82744 16.3371 2.89935 15.9055L3.60068 11.8774C3.63665 11.6257 3.54674 11.3739 3.36689 11.1941L0.453756 8.37085C0.0401604 7.97526 -0.103699 7.3998 0.0761252 6.86033C0.255932 6.32084 0.705511 5.94321 1.26297 5.8533L5.29103 5.25987C5.54279 5.22391 5.77654 5.06207 5.88444 4.84628L7.68268 1.17786C7.93443 0.674354 8.43794 0.368652 8.9954 0.368652C9.55285 0.368652 10.0564 0.674354 10.3081 1.17786L12.1064 4.84628C12.2322 5.08007 12.448 5.22391 12.6998 5.25987L16.7279 5.85331C17.2853 5.94322 17.7349 6.32086 17.9147 6.84235C18.0945 7.38182 17.9507 7.95726 17.5551 8.35289L14.6599 11.1941C14.4621 11.3739 14.3901 11.6257 14.4261 11.8774L15.1094 15.8875C15.1814 16.3191 15.0735 16.7507 14.7857 17.0744C14.516 17.416 14.1024 17.6138 13.6708 17.6138Z" fill="white"></path>
</g>
<defs>
<clipPath id="clip0_571_24150">
<rect width="18" height="18" fill="white"></rect>
</clipPath>
</defs>
</svg>